<svg width="24" height="24" viewBox="0 0 24 24" fill="none" xmlns="http://www.w3.org/2000/svg">
<g clip-path="url(#clip0_2544_17155)">
<path d="M0 21.8334H24V24.5H0V21.8334ZM4 17.8333C5.46667 17.8333 6.66667 16.6333 6.66667 15.1666C6.66667 14.5 6.4 13.8333 6 13.4334L7.73333 9.83337H7.99997C8.66663 9.83337 9.33337 9.56666 9.73332 9.16663L13.3333 11.0334V11.1667C13.3333 12.6333 14.5333 13.8333 16 13.8333C17.4667 13.8333 18.6667 12.6333 18.6667 11.1667C18.6667 10.5 18.4 9.96668 18 9.43334L19.7333 5.83333H20C21.4667 5.83333 22.6667 4.63333 22.6667 3.16666C22.6667 1.7 21.4667 0.5 20 0.5C18.5333 0.5 17.3333 1.7 17.3333 3.16666C17.3333 3.83334 17.6 4.5 18 4.9L16.2667 8.49997H16C15.3334 8.49997 14.6666 8.76668 14.2667 9.16663L10.6667 7.43333V7.16667C10.6667 5.7 9.46668 4.5 7.99997 4.5C6.53333 4.5 5.33333 5.7 5.33333 7.16667C5.33333 7.83333 5.6 8.49997 6 8.9L4.26667 12.5H4C2.53333 12.5 1.33333 13.7 1.33333 15.1666C1.33333 16.6333 2.53333 17.8333 4 17.8333Z" fill="#91C15F"/>
</g>
<defs>
<clipPath id="clip0_2544_17155">
<rect width="24" height="24" fill="white"/>
</clipPath>
</defs>
</svg>
