<svg width="24" height="24" viewBox="0 0 24 24" fill="none" xmlns="http://www.w3.org/2000/svg">
<g clip-path="url(#clip0_2544_17154)">
<path d="M20 20.8242C20 21.0894 19.8946 21.3437 19.7071 21.5313C19.5196 21.7188 19.2652 21.8242 19 21.8242H5C4.73478 21.8242 4.48043 21.7188 4.29289 21.5313C4.10536 21.3437 4 21.0894 4 20.8242V11.8242H1L11.327 2.43617C11.5111 2.26865 11.7511 2.17581 12 2.17581C12.2489 2.17581 12.4889 2.26865 12.673 2.43617L23 11.8242H20V20.8242ZM7.5 13.8242C7.5 15.0176 7.97411 16.1622 8.81802 17.0061C9.66193 17.8501 10.8065 18.3242 12 18.3242C13.1935 18.3242 14.3381 17.8501 15.182 17.0061C16.0259 16.1622 16.5 15.0176 16.5 13.8242H14.5C14.5 14.4872 14.2366 15.1231 13.7678 15.5919C13.2989 16.0608 12.663 16.3242 12 16.3242C11.337 16.3242 10.7011 16.0608 10.2322 15.5919C9.76339 15.1231 9.5 14.4872 9.5 13.8242H7.5Z" fill="white"/>
</g>
<defs>
<clipPath id="clip0_2544_17154">
<rect width="24" height="24" fill="white"/>
</clipPath>
</defs>
</svg>
